<?xml version="1.0" standalone="no"?>
<!DOCTYPE svg PUBLIC "-//W3C//DTD SVG 20010904//EN"
 "http://www.w3.org/TR/2001/REC-SVG-20010904/DTD/svg10.dtd">
<svg version="1.0" xmlns="http://www.w3.org/2000/svg"
 width="512.000000pt" height="512.000000pt" viewBox="0 0 512.000000 512.000000"
 preserveAspectRatio="xMidYMid meet">
<metadata>
Created by potrace 1.14, written by Peter Selinger 2001-2017
</metadata>
<g transform="translate(0.000000,512.000000) scale(0.100000,-0.100000)"
fill="#000000" stroke="none">
<path d="M688 5020 c-105 -19 -221 -98 -264 -181 -41 -80 -44 -115 -44 -595 0
-364 3 -464 13 -472 7 -6 27 -9 44 -6 44 7 93 -35 93 -82 0 -40 -15 -50 -97
-65 -79 -15 -111 -36 -139 -92 -37 -72 -45 -133 -45 -342 -1 -105 -5 -213 -10
-240 -5 -28 -12 -63 -15 -80 -24 -129 -23 -358 0 -517 13 -86 46 -225 86 -363
4 -16 18 -64 30 -105 28 -97 62 -158 115 -209 34 -33 45 -51 50 -86 9 -54 -5
-96 -35 -112 -31 -15 -46 -8 -61 30 -7 18 -29 68 -50 112 -119 258 -202 547
-224 790 -13 145 -8 338 15 509 6 48 6 84 1 89 -15 15 -51 -3 -52 -26 0 -12
-6 -65 -13 -117 -13 -98 -14 -348 -2 -460 27 -245 140 -618 249 -819 l42 -76
5 -440 c5 -435 5 -441 28 -483 32 -59 94 -119 150 -144 75 -32 213 -45 466
-43 245 2 285 6 328 36 14 11 30 19 35 19 4 0 40 -20 78 -45 191 -124 475
-233 705 -271 14 -3 48 -9 75 -14 129 -24 373 -38 505 -29 130 9 232 19 250
24 8 2 35 7 60 10 79 11 305 73 397 108 566 219 1070 712 1375 1346 99 206
183 495 203 701 4 36 9 79 11 95 7 41 7 318 0 380 -12 104 -20 144 -51 265
-13 52 -26 118 -29 145 -3 28 -23 104 -45 170 -62 190 -129 331 -250 529 -85
138 -234 320 -353 431 -141 132 -165 153 -213 189 -27 21 -56 45 -63 54 -6 9
-18 17 -25 18 -7 1 -51 26 -97 56 -162 104 -381 212 -550 270 -82 28 -284 82
-345 92 -348 59 -538 63 -830 21 -188 -27 -486 -111 -705 -199 -46 -19 -89
-32 -96 -29 -7 2 -15 19 -18 36 -8 43 -80 151 -117 178 -53 38 -109 48 -226
43 -130 -6 -109 -6 -213 0 -47 3 -106 1 -132 -4z"/>
<path d="M4180 4810 c-36 -10 -90 -39 -90 -49 0 -18 14 -19 63 -4 71 21 117 6
157 -49 32 -44 39 -94 20 -143 -12 -32 -48 -64 -71 -65 -20 0 -33 -27 -18 -36
20 -12 76 7 102 34 14 15 31 48 38 73 11 39 10 53 -5 95 -19 55 -24 74 -25 91
-1 14 -76 50 -116 56 -16 2 -41 1 -55 -3z"/>
<path d="M4132 4644 c-15 -10 -22 -25 -22 -49 0 -59 54 -91 99 -58 73 55 -2
160 -77 107z"/>
<path d="M257 3669 c-75 -40 -139 -162 -141 -272 -2 -67 9 -77 24 -22 7 25 27
69 44 98 31 52 118 217 113 217 -1 -1 -19 -10 -40 -21z"/>
<path d="M4396 709 c-52 -41 -23 -129 42 -129 36 0 72 37 72 74 0 31 -40 76
-68 76 -11 0 -31 -9 -46 -21z"/>
</g>
</svg>
